<svg width="39px" height="34px" viewBox="0 0 39 34" version="1.1" xmlns="http://www.w3.org/2000/svg" xmlns:xlink="http://www.w3.org/1999/xlink">
    <defs>
        <polygon id="path-1" points="9.604 4.7538 9.604 9.41066667 0.234266667 9.41066667 0.234266667 0.0969333333 9.604 0.0969333333 9.604 4.7538"></polygon>
    </defs>
    <g id="Desktop" stroke="none" stroke-width="1" fill="none" fill-rule="evenodd">
        <g id="DIS-Dashboard-Approver" transform="translate(-51.000000, -16.000000)">
            <g id="DD-Print-White-GREEN-copy-2" transform="translate(51.000000, 16.000000)">
                <g id="Group-3" transform="translate(28.933333, 24.133333)">
                    <mask id="mask-2" fill="white">
                        <use xlink:href="#path-1"></use>
                    </mask>
                    <g id="Clip-2"></g>
                    <path d="M0.234266667,4.78226667 C0.234266667,2.196 2.3352,0.0969333333 4.9196,0.0969333333 C7.5068,0.0969333333 9.604,2.196 9.604,4.78226667 C9.604,7.36853333 7.5068,9.46666667 4.9196,9.46666667 C2.3352,9.46666667 0.234266667,7.36853333 0.234266667,4.78226667" id="Fill-1" fill="#6FB744" mask="url(#mask-2)"></path>
                </g>
                <path d="M17.9834667,16.5069333 C17.9834667,13.5389333 17.4094667,11.3381333 16.2624,9.9036 C15.1153333,8.47093333 13.3746667,7.75413333 11.0357333,7.75413333 L8.5484,7.75413333 L8.5484,25.9028 L10.4524,25.9028 C13.0489333,25.9028 14.9538667,25.1318667 16.1644,23.5872 C17.3768,22.0444 17.9834667,19.6830667 17.9834667,16.5069333 M26.8557333,16.198 C26.8557333,21.6038667 25.4006667,25.7712 22.4942667,28.6953333 C19.5878667,31.6213333 15.5017333,33.0838667 10.2349333,33.0838667 L0,33.0838667 L0,0.685066667 L10.9498667,0.685066667 C16.0281333,0.685066667 19.9490667,2.016 22.7117333,4.67413333 C25.4734667,7.33413333 26.8557333,11.1738667 26.8557333,16.198" id="Fill-4" fill="#1A1919"></path>
            </g>
        </g>
    </g>
</svg>