<?xml version="1.0" encoding="UTF-8" standalone="no"?>
<svg width="42px" height="36px" viewBox="0 0 42 36" version="1.1" xmlns="http://www.w3.org/2000/svg" xmlns:xlink="http://www.w3.org/1999/xlink">
    <!-- Generator: Sketch 46.1 (44463) - http://www.bohemiancoding.com/sketch -->
    <title>DD-Print-White-GREEN copy</title>
    <desc>Created with Sketch.</desc>
    <defs>
        <polygon id="path-1" points="10.29 5.9505 10.29 10.94 0.251 10.94 0.251 0.961 10.29 0.961 10.29 5.9505"></polygon>
    </defs>
    <g id="Symbols" stroke="none" stroke-width="1" fill="none" fill-rule="evenodd">
        <g id="Top-Nav" transform="translate(-50.000000, -15.000000)">
            <g id="DD-Print-White-GREEN-copy" transform="translate(50.000000, 15.000000)">
                <g id="Group-3" transform="translate(31.000000, 25.000000)">
                    <mask id="mask-2" fill="white">
                        <use xlink:href="#path-1"></use>
                    </mask>
                    <g id="Clip-2"></g>
                    <path d="M0.251,5.981 C0.251,3.21 2.502,0.961 5.271,0.961 C8.043,0.961 10.29,3.21 10.29,5.981 C10.29,8.752 8.043,11 5.271,11 C2.502,11 0.251,8.752 0.251,5.981" id="Fill-1" fill="#6FB744" mask="url(#mask-2)"></path>
                </g>
                <path d="M19.268,17.686 C19.268,14.506 18.653,12.148 17.424,10.611 C16.195,9.076 14.33,8.308 11.824,8.308 L9.159,8.308 L9.159,27.753 L11.199,27.753 C13.981,27.753 16.022,26.927 17.319,25.272 C18.618,23.619 19.268,21.089 19.268,17.686 M28.774,17.355 C28.774,23.147 27.215,27.612 24.101,30.745 C20.987,33.88 16.609,35.447 10.966,35.447 L0,35.447 L0,0.734 L11.732,0.734 C17.173,0.734 21.374,2.16 24.334,5.008 C27.293,7.858 28.774,11.972 28.774,17.355" id="Fill-4" fill="#FFFFFE"></path>
            </g>
        </g>
    </g>
</svg>